<?xml version="1.0" encoding="utf-8"?>
<!-- Generator: Adobe Illustrator 19.2.1, SVG Export Plug-In . SVG Version: 6.00 Build 0)  -->
<svg version="1.1" id="layer" xmlns="http://www.w3.org/2000/svg" xmlns:xlink="http://www.w3.org/1999/xlink" x="0px" y="0px"
	 viewBox="0 0 652 652" style="enable-background:new 0 0 652 652;" xml:space="preserve">
<style type="text/css">
	.st0{fill:none;stroke:#000000;stroke-width:1.2002;stroke-miterlimit:10;}
</style>
<path class="st0" d="M285,254v143.4"/>
<path d="M335.7,289.7c2.3,2.5,3.4,6,3.4,10.7c0,5.3-1.2,9.4-3.7,12.2c-2.4,2.8-5.9,4.3-10.5,4.3c-2.4,0-5.5-0.1-9.5-0.2l0.2-9.2
	l-0.2-21.1l10.3-0.2C330.1,286,333.4,287.2,335.7,289.7z M333.8,311.1c2-2.4,2.9-5.8,2.9-10.4c0-4.2-0.9-7.3-2.8-9.5
	c-1.9-2.2-4.6-3.2-8.2-3.2c-1.8,0-4.4,0.1-7.7,0.2l-0.2,18.9l0.1,7.2c2.9,0.2,5.4,0.3,7.4,0.3C329,314.7,331.8,313.5,333.8,311.1z
	 M357.5,296.8c1.3,1.4,1.9,3.4,1.9,5.8l-0.1,1.8l-0.6,0.5l-13.8,0.2v0.8c0,2.8,0.6,5,1.8,6.6c1.2,1.6,3,2.4,5.3,2.4
	c2.2,0,4.3-0.7,6.1-2.2l0.4,0.2l-0.3,2.2c-2,1.3-4.1,1.9-6.4,1.9c-2.9,0-5.1-1-6.8-2.9c-1.6-2-2.4-4.6-2.4-8c0-3.5,0.9-6.3,2.6-8.3
	c1.7-2,4.1-3,7-3C354.4,294.7,356.2,295.3,357.5,296.8z M355.8,298c-0.9-1-2.2-1.5-3.8-1.5c-1.8,0-3.3,0.6-4.5,1.8
	c-1.2,1.2-2,2.8-2.3,5l12-0.3l0.1-0.6C357.2,300.5,356.7,299,355.8,298z M377.6,296.8c1.3,1.4,1.9,3.4,1.9,5.8l-0.1,1.8l-0.6,0.5
	l-13.8,0.2v0.8c0,2.8,0.6,5,1.8,6.6c1.2,1.6,3,2.4,5.3,2.4c2.2,0,4.3-0.7,6.1-2.2l0.4,0.2l-0.3,2.2c-2,1.3-4.1,1.9-6.4,1.9
	c-2.9,0-5.1-1-6.8-2.9c-1.6-2-2.4-4.6-2.4-8c0-3.5,0.9-6.3,2.6-8.3c1.7-2,4.1-3,7-3C374.5,294.7,376.2,295.3,377.6,296.8z
	 M375.8,298c-0.9-1-2.2-1.5-3.8-1.5c-1.8,0-3.3,0.6-4.5,1.8c-1.2,1.2-2,2.8-2.3,5l12-0.3l0.1-0.6C377.2,300.5,376.8,299,375.8,298z
	 M399.8,297.4c1.4,1.8,2.2,4.4,2.2,7.7c0,3.8-0.9,6.6-2.7,8.7c-1.8,2-4.3,3-7.7,3c-1.6,0-3.1-0.2-4.6-0.4l0,8.9h-2.4l0.2-18.1
	l-0.2-12.2l2.4-0.3v3.2h0.2c2-1.9,4.1-3,6.5-3.3C396.3,294.7,398.4,295.6,399.8,297.4z M397.5,312.5c1.4-1.6,2.1-4,2.1-7.1
	c0-2.8-0.5-4.9-1.6-6.5c-1.1-1.5-2.6-2.3-4.5-2.3c-2.3,0-4.5,1.2-6.5,3.6l0,6.7l0,6.7c1.8,0.7,3.4,1.1,4.9,1.1
	C394.3,315,396.2,314.2,397.5,312.5z M420.5,296.8c1.3,1.4,1.9,3.4,1.9,5.8l-0.1,1.8l-0.6,0.5l-13.8,0.2v0.8c0,2.8,0.6,5,1.8,6.6
	c1.2,1.6,3,2.4,5.3,2.4c2.2,0,4.3-0.7,6.1-2.2l0.4,0.2l-0.3,2.2c-2,1.3-4.1,1.9-6.4,1.9c-2.9,0-5.1-1-6.8-2.9c-1.6-2-2.4-4.6-2.4-8
	c0-3.5,0.9-6.3,2.6-8.3c1.7-2,4.1-3,7-3C417.4,294.7,419.2,295.3,420.5,296.8z M418.8,298c-0.9-1-2.2-1.5-3.8-1.5
	c-1.8,0-3.3,0.6-4.5,1.8s-2,2.8-2.3,5l12-0.3l0.1-0.6C420.2,300.5,419.7,299,418.8,298z M440.2,298.1c-0.8-0.8-1.9-1.3-3.3-1.3
	c-2.4,0-4.7,1.3-7,3.9l0,6.4l0.2,9.4h-2.5l0.2-9.3l-0.1-12.2l2.3-0.3v3.5h0.2c2.2-2.2,4.5-3.4,6.7-3.7c2.2,0,3.9,0.6,5,1.7
	c1.2,1.1,1.8,2.7,1.7,4.8l0,6.1l0.1,9.4h-2.5l0.2-15C441.4,300.1,441,298.9,440.2,298.1z M453.6,287.3c0,1.1-0.6,1.7-1.6,1.7
	c-1,0-1.6-0.5-1.6-1.6c0-0.5,0.2-0.9,0.4-1.2c0.3-0.3,0.7-0.4,1.2-0.4C453.1,285.8,453.6,286.3,453.6,287.3z M453.2,316.6h-2.4
	l0.2-9.3l-0.2-12.2l2.5-0.3l-0.2,12.3L453.2,316.6z M473.4,298.1c-0.8-0.8-1.9-1.3-3.3-1.3c-2.4,0-4.7,1.3-7,3.9l0,6.4l0.2,9.4h-2.5
	l0.2-9.3l-0.1-12.2l2.3-0.3v3.5h0.2c2.2-2.2,4.5-3.4,6.7-3.7c2.2,0,3.9,0.6,5,1.7s1.8,2.7,1.7,4.8l0,6.1l0.1,9.4h-2.5l0.2-15
	C474.5,300.1,474.2,298.9,473.4,298.1z M497.4,297.3l0,0.2c0.9,1.2,1.4,2.7,1.4,4.5c0,2.3-0.7,4.1-2.2,5.4c-1.4,1.4-3.4,2-5.9,2
	c-1.2,0-2.3-0.2-3.3-0.5c-0.7,0.6-1.2,1-1.5,1.3c-0.2,0.3-0.4,0.7-0.4,1c0,0.7,0.4,1.2,1.4,1.5c0.9,0.3,2.3,0.6,4.3,0.9
	c1.9,0.3,3.4,0.6,4.6,0.9c1.2,0.3,2.2,0.8,3.1,1.5c0.8,0.7,1.3,1.6,1.3,2.9c0,1.2-0.4,2.4-1.3,3.4c-0.9,1-2.1,1.9-3.6,2.5
	c-1.6,0.6-3.2,0.9-4.9,0.9c-2.4,0-4.3-0.6-5.7-1.6c-1.4-1.1-2.1-2.5-2.1-4.2c0.6-1.8,2.1-3.4,4.5-4.7v-0.2c-2.6-0.7-3.9-1.8-3.9-3.6
	c0.4-0.9,1.4-1.9,2.9-2.9v-0.2c-2-1.3-3-3.3-3-6.1c0-2.4,0.7-4.2,2.2-5.5c1.4-1.3,3.4-2,5.9-2c1.7,0,3.2,0.3,4.4,1
	c2.7-0.5,4.8-1,6.5-1.5l0.3,0.2v1.8C500.6,296.6,499.1,296.9,497.4,297.3z M496.9,317.2c-0.6-0.5-1.4-0.8-2.4-1
	c-0.9-0.2-2.2-0.4-3.8-0.7c-0.4,0-0.9-0.1-1.6-0.2c-3,1.7-4.5,3.3-4.5,4.9c0,1,0.5,1.9,1.5,2.6c1,0.7,2.4,1.1,4.2,1.1
	c1.4,0,2.6-0.2,3.7-0.6c1.1-0.4,2-1,2.7-1.8c0.7-0.7,1-1.5,1-2.3C497.8,318.4,497.5,317.7,496.9,317.2z M494.9,306.1
	c1-1,1.5-2.4,1.5-4.1c0-1.8-0.5-3.1-1.4-4c-1-1-2.4-1.4-4.1-1.4c-1.8,0-3.2,0.5-4.2,1.5c-1,1-1.5,2.4-1.5,4.1c0,1.7,0.5,3.1,1.5,4
	c1,1,2.4,1.5,4.1,1.5C492.5,307.6,493.9,307.1,494.9,306.1z M522.4,313.6l0.3,0.2l-0.2,1.7c-1.6,0.8-3,1.2-4.3,1.3
	c-3.2-0.4-4.9-2.4-4.9-5.9l0.1-4.3l0-9.9h-3l-0.2-0.2l0.2-1.5h3v-4.3l2.1-0.8l0.3,0.2l0,4.9h6.9l0.2,0.2l-0.2,1.5h-6.9l-0.2,13.9
	c0,2.7,1.1,4,3.3,4C519.9,314.7,521.1,314.3,522.4,313.6z M541.3,296.3c1.2,1.1,1.8,2.7,1.7,4.8l-0.1,6.1l0.1,9.4h-2.5l0.2-15
	c0-1.5-0.4-2.7-1.2-3.6c-0.8-0.8-1.9-1.3-3.3-1.3c-2.3,0-4.6,1.3-7,3.9l0,6.4l0.2,9.4h-2.4l0.2-9.3l-0.2-23.9l2.5-0.2l-0.2,15.1h0.3
	c2.2-2.2,4.5-3.4,6.7-3.7C538.4,294.7,540.1,295.2,541.3,296.3z M563,296.8c1.3,1.4,1.9,3.4,1.9,5.8l-0.1,1.8l-0.6,0.5l-13.8,0.2
	v0.8c0,2.8,0.6,5,1.8,6.6c1.2,1.6,3,2.4,5.3,2.4c2.2,0,4.3-0.7,6.1-2.2l0.4,0.2l-0.3,2.2c-2,1.3-4.1,1.9-6.4,1.9
	c-2.9,0-5.1-1-6.8-2.9c-1.6-2-2.4-4.6-2.4-8c0-3.5,0.9-6.3,2.6-8.3c1.7-2,4.1-3,7-3C560,294.7,561.8,295.3,563,296.8z M561.3,298
	c-0.9-1-2.2-1.5-3.8-1.5c-1.8,0-3.3,0.6-4.5,1.8c-1.2,1.2-2,2.8-2.3,5l12-0.3l0.1-0.6C562.8,300.5,562.3,299,561.3,298z
	 M329.2,334.9l-0.4,2.3l-0.5,0.2c-1.8-1.2-3.8-1.8-5.7-1.8c-1.3,0-2.5,0.3-3.5,0.8c-1,0.6-1.8,1.3-2.3,2.2c-0.5,0.9-0.8,1.8-0.8,2.7
	c0,1,0.3,1.8,0.8,2.6c0.6,0.7,1.3,1.4,2.1,1.9c0.8,0.5,2,1.1,3.4,1.8c1.7,0.8,3,1.6,4.1,2.2c1,0.6,1.9,1.5,2.6,2.5
	c0.7,1,1.1,2.3,1.1,3.8c0,1.5-0.4,2.9-1.2,4.1c-0.8,1.3-2,2.3-3.4,3c-1.5,0.8-3.1,1.1-5,1.1c-2.9,0-5.4-0.7-7.7-2.2l0.3-2.5l0.3-0.2
	c1,0.9,2.2,1.6,3.5,2.1c1.3,0.5,2.6,0.7,3.8,0.7c1.4,0,2.6-0.3,3.7-0.8c1-0.6,1.8-1.3,2.4-2.2c0.6-0.9,0.8-1.9,0.8-2.9
	c0-1-0.3-2-0.9-2.8c-0.6-0.8-1.3-1.4-2.2-1.9c-0.8-0.5-2-1.1-3.5-1.8c-1.6-0.8-3-1.5-4-2.2c-1-0.6-1.9-1.5-2.6-2.5
	c-0.7-1-1-2.2-1-3.7c0-1.5,0.4-2.8,1.2-4c0.8-1.2,1.9-2.2,3.3-2.9c1.4-0.7,3-1.1,4.8-1.1C325,333.5,327.1,334,329.2,334.9z
	 M348.9,343.7l-0.5,2.2l-0.4,0c-1.6-1.2-3.4-1.7-5.2-1.7c-2.1,0-3.7,0.8-4.9,2.4c-1.2,1.6-1.8,3.9-1.8,6.7c0,2.8,0.6,4.9,1.8,6.5
	c1.2,1.6,2.9,2.4,4.9,2.4c2,0,3.9-0.6,5.7-1.8l0.3,0.2l-0.2,2.1c-1.9,1-3.9,1.6-6,1.6c-2.7,0-4.9-1-6.5-3c-1.6-2-2.4-4.6-2.4-8
	c0-3.5,0.8-6.2,2.4-8.3c1.6-2,3.8-3.1,6.6-3.1C345.1,342.1,347.1,342.6,348.9,343.7z M356,334.8c0,1.1-0.6,1.7-1.6,1.7
	c-1,0-1.6-0.5-1.6-1.6c0-0.5,0.2-0.9,0.4-1.2c0.3-0.3,0.7-0.4,1.2-0.4C355.5,333.2,356,333.8,356,334.8z M355.5,364h-2.4l0.2-9.3
	l-0.2-12.2l2.5-0.3l-0.2,12.3L355.5,364z M376.1,344.3c1.3,1.4,1.9,3.4,1.9,5.8l-0.1,1.8l-0.6,0.5l-13.8,0.2v0.8
	c0,2.8,0.6,5,1.8,6.6c1.2,1.6,3,2.4,5.3,2.4c2.2,0,4.3-0.7,6.1-2.2l0.4,0.2l-0.3,2.2c-2,1.3-4.1,1.9-6.4,1.9c-2.9,0-5.1-1-6.8-2.9
	c-1.6-2-2.4-4.6-2.4-8c0-3.5,0.9-6.3,2.6-8.3c1.7-2,4.1-3,7-3C373.1,342.1,374.8,342.9,376.1,344.3z M374.4,345.5
	c-0.9-1-2.2-1.5-3.8-1.5c-1.8,0-3.3,0.6-4.5,1.8c-1.2,1.2-2,2.8-2.3,5l12-0.3l0.1-0.6C375.8,347.9,375.3,346.5,374.4,345.5z
	 M395.8,345.5c-0.8-0.8-1.9-1.3-3.3-1.3c-2.4,0-4.7,1.3-7,3.9l0,6.4l0.2,9.4h-2.5l0.2-9.3l-0.1-12.2l2.3-0.3v3.5h0.2
	c2.2-2.2,4.5-3.4,6.7-3.7c2.2,0,3.9,0.6,5,1.7c1.2,1.1,1.8,2.7,1.7,4.8l0,6.1l0.1,9.4h-2.5l0.2-15
	C397,347.6,396.6,346.4,395.8,345.5z M419.5,343.7l-0.5,2.2l-0.4,0c-1.6-1.2-3.4-1.7-5.2-1.7c-2.1,0-3.7,0.8-4.9,2.4
	c-1.2,1.6-1.8,3.9-1.8,6.7c0,2.8,0.6,4.9,1.8,6.5c1.2,1.6,2.9,2.4,4.9,2.4c2,0,3.9-0.6,5.7-1.8l0.3,0.2l-0.2,2.1
	c-1.9,1-3.9,1.6-6,1.6c-2.7,0-4.9-1-6.5-3c-1.6-2-2.4-4.6-2.4-8c0-3.5,0.8-6.2,2.4-8.3c1.6-2,3.8-3.1,6.6-3.1
	C415.7,342.1,417.7,342.6,419.5,343.7z M436.7,344.3c1.3,1.4,1.9,3.4,1.9,5.8l-0.1,1.8l-0.6,0.5l-13.8,0.2v0.8c0,2.8,0.6,5,1.8,6.6
	c1.2,1.6,3,2.4,5.3,2.4c2.2,0,4.3-0.7,6.1-2.2l0.4,0.2l-0.3,2.2c-2,1.3-4.1,1.9-6.4,1.9c-2.9,0-5.1-1-6.8-2.9c-1.6-2-2.4-4.6-2.4-8
	c0-3.5,0.9-6.3,2.6-8.3c1.7-2,4.1-3,7-3C433.7,342.1,435.4,342.9,436.7,344.3z M435,345.5c-0.9-1-2.2-1.5-3.8-1.5
	c-1.8,0-3.3,0.6-4.5,1.8c-1.2,1.2-2,2.8-2.3,5l12-0.3l0.1-0.6C436.4,347.9,436,346.5,435,345.5z M465.2,345c1.6,1.9,2.4,4.6,2.4,8
	c0,3.6-0.8,6.4-2.5,8.4c-1.7,2-4,3-7,3c-2.9,0-5.1-1-6.7-2.9c-1.6-1.9-2.4-4.6-2.4-8c0-3.6,0.8-6.4,2.5-8.4c1.7-2,4-3,7-3
	C461.4,342.1,463.6,343.1,465.2,345z M453.3,346.3c-1.2,1.6-1.8,3.8-1.8,6.7c0,3,0.6,5.4,1.8,7c1.2,1.6,2.9,2.4,5,2.4
	c2.2,0,4-0.8,5.2-2.4c1.2-1.6,1.8-3.8,1.8-6.7c0-3-0.6-5.4-1.8-7c-1.2-1.6-2.9-2.5-5-2.5C456.2,343.9,454.5,344.7,453.3,346.3z
	 M484.7,331l-0.2,2l-0.2,0.2c-1.1-0.4-2.2-0.7-3.2-0.7c-1.4,0-2.5,0.4-3.2,1.3c-0.8,0.9-1.1,2.2-1.1,3.9l0,4.7h5.8l0.2,0.2l-0.2,1.5
	h-5.7l-0.1,10.5l0.2,9.4h-2.4l0.2-9.1l0-10.7h-3.2L471,344l0.2-1.5h3.2l0-4.5c0-2.4,0.6-4.2,1.8-5.5c1.2-1.3,2.9-1.9,5.1-1.9
	C482.2,330.6,483.4,330.7,484.7,331z M507.5,334.9l-0.4,2.3l-0.5,0.2c-1.8-1.2-3.7-1.8-5.7-1.8c-1.3,0-2.5,0.3-3.5,0.8
	c-1,0.6-1.8,1.3-2.3,2.2c-0.5,0.9-0.8,1.8-0.8,2.7c0,1,0.3,1.8,0.8,2.6c0.6,0.7,1.3,1.4,2.1,1.9c0.8,0.5,2,1.1,3.4,1.8
	c1.7,0.8,3,1.6,4.1,2.2c1,0.6,1.9,1.5,2.6,2.5c0.7,1,1.1,2.3,1.1,3.8c0,1.5-0.4,2.9-1.2,4.1c-0.8,1.3-2,2.3-3.4,3
	c-1.5,0.8-3.1,1.1-5,1.1c-2.9,0-5.4-0.7-7.7-2.2l0.3-2.5l0.3-0.2c1,0.9,2.2,1.6,3.5,2.1c1.3,0.5,2.6,0.7,3.8,0.7
	c1.4,0,2.6-0.3,3.7-0.8c1-0.6,1.8-1.3,2.4-2.2c0.6-0.9,0.8-1.9,0.8-2.9c0-1-0.3-2-0.9-2.8c-0.6-0.8-1.3-1.4-2.2-1.9
	c-0.8-0.5-2-1.1-3.5-1.8c-1.6-0.8-3-1.5-4-2.2c-1-0.6-1.9-1.5-2.6-2.5c-0.7-1-1-2.2-1-3.7c0-1.5,0.4-2.8,1.2-4
	c0.8-1.2,1.9-2.2,3.3-2.9c1.4-0.7,3-1.1,4.8-1.1C503.3,333.5,505.4,334,507.5,334.9z M527,344.3c1.3,1.4,1.9,3.4,1.9,5.8l-0.1,1.8
	l-0.6,0.5l-13.8,0.2v0.8c0,2.8,0.6,5,1.8,6.6c1.2,1.6,3,2.4,5.3,2.4c2.2,0,4.3-0.7,6.1-2.2l0.4,0.2l-0.3,2.2c-2,1.3-4.1,1.9-6.4,1.9
	c-2.9,0-5.1-1-6.8-2.9c-1.6-2-2.4-4.6-2.4-8c0-3.5,0.9-6.3,2.6-8.3c1.7-2,4.1-3,7-3C524,342.1,525.8,342.9,527,344.3z M525.3,345.5
	c-0.9-1-2.2-1.5-3.8-1.5c-1.8,0-3.3,0.6-4.5,1.8c-1.2,1.2-2,2.8-2.3,5l12-0.3l0.1-0.6C526.7,347.9,526.3,346.5,525.3,345.5z
	 M547.2,343.7l-0.5,2.2l-0.4,0c-1.6-1.2-3.4-1.7-5.2-1.7c-2.1,0-3.7,0.8-4.9,2.4c-1.2,1.6-1.8,3.9-1.8,6.7c0,2.8,0.6,4.9,1.8,6.5
	c1.2,1.6,2.9,2.4,4.9,2.4c2,0,3.9-0.6,5.7-1.8l0.3,0.2l-0.2,2.1c-1.9,1-4,1.6-6,1.6c-2.7,0-4.9-1-6.5-3c-1.6-2-2.4-4.6-2.4-8
	c0-3.5,0.8-6.2,2.4-8.3c1.6-2,3.8-3.1,6.6-3.1C543.4,342.1,545.4,342.6,547.2,343.7z M568.1,362.2c0.6,0,1.1-0.2,1.8-0.5l0.3,0.2
	l-0.3,1.6c-0.8,0.5-1.6,0.7-2.4,0.8c-1.8-0.1-2.8-1.2-3-3.6h-0.3c-2.2,2.2-4.4,3.4-6.7,3.6c-2.1,0-3.7-0.6-4.8-1.7
	c-1.1-1.1-1.6-2.7-1.6-4.8l0-5.2l-0.1-10.1l2.5-0.3l-0.2,15c0,1.5,0.3,2.7,1,3.6c0.7,0.8,1.8,1.3,3.2,1.3c2.2,0,4.5-1.2,6.7-3.6v-16
	l2.4-0.3l-0.2,17.5C566.5,361.4,567.1,362.2,568.1,362.2z M584.7,342.5v2.4l-0.3,0.1c-0.6-0.1-1.1-0.2-1.5-0.2
	c-2.1,0-4.1,1.9-5.9,5.7v4.1l0.2,9.4h-2.5l0.2-9.3l-0.1-12.2l2.3-0.3v4.9h0.2c1.8-3.2,3.9-4.8,6.3-4.8
	C583.9,342.4,584.3,342.4,584.7,342.5z M591.3,334.8c0,1.1-0.6,1.7-1.6,1.7c-1,0-1.6-0.5-1.6-1.6c0-0.5,0.2-0.9,0.4-1.2
	c0.3-0.3,0.7-0.4,1.2-0.4C590.8,333.2,591.3,333.8,591.3,334.8z M590.8,364h-2.4l0.2-9.3l-0.2-12.2l2.5-0.3l-0.2,12.3L590.8,364z
	 M607.9,361.1l0.3,0.2l-0.2,1.7c-1.6,0.8-3,1.2-4.3,1.3c-3.2-0.4-4.9-2.4-4.9-5.9l0.1-4.3l0-9.9h-3l-0.2-0.2l0.2-1.5h3v-4.3l2.1-0.8
	l0.3,0.2l0,4.9h6.9l0.2,0.2l-0.2,1.5h-6.9l-0.2,13.9c0,2.7,1.1,4,3.3,4C605.4,362.2,606.6,361.8,607.9,361.1z M617.5,361h0.3l6-16
	l0.7-2.6h2.4l-8,21.2c-0.8,2-1.6,3.7-2.5,4.9c-0.9,1.2-2,2.2-3.3,2.9c-1.3,0.7-2.9,1.3-4.7,1.7h-0.3c-0.5-0.4-0.8-0.9-1.2-1.5
	l0.1-0.4c2.6-0.5,4.5-1.3,5.9-2.3c1.4-1,2.6-2.6,3.6-4.9l-7.9-21.5l2.4-0.2l0.7,2.5L617.5,361z"/>
<path d="M85.9,391.1l22.6-3.2c0.3,0-0.3,0,0,0l-18.2-10L85.9,391.1z M177.9,360.5l-6.7,21l14.7-4.3l5.5-17.6L177.9,360.5z
	 M201,285.5l5.1-16.6l-11.2-7.3l-6.3,20.1L201,285.5z M141.1,267.5l10.8,3.2l0.2-15l-19,3.8l-2.6,4.7
	C130.5,264.3,138.1,266.6,141.1,267.5z M68.4,320.3l4.7-15L61.1,302c-1.3,4.1-4.6,14.1-5.9,18.2L68.4,320.3z M46,298.1l-12.2-3.3
	l-3.5,11.4l10,10.5L46,298.1z M228.6,368.3c0.6,5.2-4.9,11.2-10.4,11.2c-3,0-4.5-2.4-4.5-5.1c0.1-2,0.8-4.7,1.9-6.5h-0.1H202
	c-1.1,2.8-2,5.8-2,8.8c0,10,8.8,12.6,17.1,12.6c8.7,0,15.8-1.7,20.3-9.7c2-3.6,4.3-8.9,4.1-13.1c-0.2-5.3-1.7-7-4.7-10.3l-16.1,1.1
	C225.3,360,228,363.5,228.6,368.3z M30.2,257.1l-3.3,10.4h15.3l-7.6,24.1l12.2,3.3l8.5-27.4h13.2l3.3-10.4L30.2,257.1z M76.5,294.2
	c1.5-0.1,3-0.1,4.5-0.1c2.5,0,6.2,0.2,6.2,3.6c0,2.4-0.9,5.4-1.6,7.7c-1.3,4.7-2.9,9.4-3.2,14.2h13.7c-0.4-7.7,4.4-14.4,4.4-22
	c0-5.1-3.9-7.2-8.4-8l1.3-0.2c9.8-1.3,15.3-9.1,15.3-18.7c0-10.7-8.9-13.7-18.1-13.7H74.9c-4.5,13.9-8.7,27.9-13.1,41.9l12.1,3.2
	L76.5,294.2z M85,266.8h4.4c3.3,0,6.5,0.8,6.5,4.7c0,4.8-3.4,12.8-9.1,12.8h-7.3L85,266.8z M138.4,296.4L138.4,296.4h-12.8
	c4.6-8.7,9-17.4,12.9-26.4l-9.1-2.8l-29.5,52.5h13.8l7.1-13.4h16.9l-0.5,13.4h13.3l1-45.8l-11.4-3.5
	C139,279.1,138.4,287.8,138.4,296.4z M176.5,319.7l31.2,0l3.4-10.2h-17.8l6.6-20.8l-12.4-3.8L176.5,319.7z M140.9,336
	c0-9.5-7.3-12.4-15.7-12.4h-17.4l-16.4,51.2l20.8,11.4c12.5-0.5,21.2-9.7,21.2-22.4c0-4.9-3-8.7-7.7-10
	C135,351.7,140.9,345.8,140.9,336z M118.1,372.8c-2.5,3.7-5.1,4-9.3,4h-5.4l5.9-18.4c4.3,0.2,12-0.9,12,5.5
	C121.4,366.7,119.7,370.5,118.1,372.8z M117,349.4h-4.9l5.2-16.2c3.9,0.2,11.3-1.1,11.3,4.9C128.6,345.3,124.1,349.4,117,349.4z
	 M167.5,278.9l-13.2,44.2L142.6,359l14-1.1l10.1-31.9l13.7-43.2C178.5,282.3,170.9,279.8,167.5,278.9z M199.3,334.1h13.3l3.3-10.3
	H174l-3.3,10.3h15.3l-7.2,23l13.4-0.9L199.3,334.1z M250.1,343.5c0.8-1.9,2-6.1,2-8.1c0-9.7-9.4-12.3-17.4-12.3
	c-13.7,0-21.9,9.6-21.9,22.8c0,1.9,1.8,6.7,5.3,8.3l16.5-1.1c-2.8-2.4-7.8-7.9-7.8-10.9c0-4.1,2.3-9.4,7-9.4c3.2,0,5.1,0.9,5.1,4.3
	c0,2.2-1.1,4.3-1.7,6.4H250.1L250.1,343.5z M83.5,324c-6.2,0-7.1,4.6-8.7,9.5c-0.5,1.8-1.5,3.9-1.5,5.7c0,3.6,3.2,4.2,6.1,4.2
	c3.6,0,5.5-1.2,6.7-4.5c0.9-2.3,3.1-8.6,3.1-10.9C89.3,324.9,86.1,324,83.5,324z M85.2,328.5c0,0.8-0.9,3.4-1.2,4.3l-1.4,4.3
	c-0.6,1.6-1.2,3.5-3.3,3.5c-1.2,0-1.9-0.7-1.9-1.9c0-1.6,1.2-4.5,1.8-6.1c0.5-1.6,1.2-4.9,3-5.5c0.4-0.1,0.8-0.2,1.3-0.2
	C84.3,326.9,85.3,327.7,85.2,328.5z M102.1,327.2l1-3.1h-9.9l-5.9,19.2h4.1L94,335h5.4l1-3.1h-5.4l1.4-4.7H102.1z"/>
</svg>
